# xmcd
#
# Track frame offsets:
#	187
#	13900
#	24862
#	38675
#	55650
#	68037
#	81175
#	95925
#	113075
#	124600
#	138400
#	150550
#
# Disc length: 2160
#
# Revision: 1
# Processed by: cddbd v1.5.1PL0 Copyright (c) Steve Scherf et al.
# Submitted via: CD-DA_X-Tractor v0.21
# Normalized: r0:TDELIM( - )
#
DISCID=93086e0c
DTITLE=Various Artist - Best of the Blues, Vol 3
DYEAR=1900
DGENRE=
TTITLE0=Little Milton - Hard Luck Blues
TTITLE1=Billy Stewart - Billy's Blues, Part 2
TTITLE2=T Bone Walker - Party Girl
TTITLE3=B B King - No Money, No Luck
TTITLE4=John Lee Hooker - I'm In the Mood
TTITLE5=B B King - Rainin' all the Time
TTITLE6=Eddie Boyd - Third Degree
TTITLE7=Brownie McGhee and Sonny Terry - Hole in the Wall
TTITLE8=Bobby Bland - Ain't that Lovin' You
TTITLE9=Little Walter - You're So Fine
TTITLE10=Muddy Waters - Trouble No More
TTITLE11=Junior Parker - Stand By Me
EXTD=
EXTT0=
EXTT1=
EXTT2=
EXTT3=
EXTT4=
EXTT5=
EXTT6=
EXTT7=
EXTT8=
EXTT9=
EXTT10=
EXTT11=
PLAYORDER=
